<svg id="visual" viewBox="0 0 960 200" width="960" height="200" xmlns="http://www.w3.org/2000/svg" xmlns:xlink="http://www.w3.org/1999/xlink" version="1.1"><rect x="0" y="0" width="960" height="200" fill="#0D090A"></rect><path d="M0 89L10.7 90.8C21.3 92.7 42.7 96.3 64 93C85.3 89.7 106.7 79.3 128 75.5C149.3 71.7 170.7 74.3 192 79.2C213.3 84 234.7 91 256 94.8C277.3 98.7 298.7 99.3 320 96C341.3 92.7 362.7 85.3 384 81.8C405.3 78.3 426.7 78.7 448 80.8C469.3 83 490.7 87 512 87C533.3 87 554.7 83 576 84C597.3 85 618.7 91 640 90C661.3 89 682.7 81 704 80C725.3 79 746.7 85 768 89C789.3 93 810.7 95 832 92.7C853.3 90.3 874.7 83.7 896 81.3C917.3 79 938.7 81 949.3 82L960 83L960 201L949.3 201C938.7 201 917.3 201 896 201C874.7 201 853.3 201 832 201C810.7 201 789.3 201 768 201C746.7 201 725.3 201 704 201C682.7 201 661.3 201 640 201C618.7 201 597.3 201 576 201C554.7 201 533.3 201 512 201C490.7 201 469.3 201 448 201C426.7 201 405.3 201 384 201C362.7 201 341.3 201 320 201C298.7 201 277.3 201 256 201C234.7 201 213.3 201 192 201C170.7 201 149.3 201 128 201C106.7 201 85.3 201 64 201C42.7 201 21.3 201 10.7 201L0 201Z" fill="#090909"></path><path d="M0 101L10.7 101.7C21.3 102.3 42.7 103.7 64 105.5C85.3 107.3 106.7 109.7 128 110C149.3 110.3 170.7 108.7 192 105.7C213.3 102.7 234.7 98.3 256 98.2C277.3 98 298.7 102 320 102.2C341.3 102.3 362.7 98.7 384 97.2C405.3 95.7 426.7 96.3 448 95C469.3 93.7 490.7 90.3 512 90C533.3 89.7 554.7 92.3 576 97.3C597.3 102.3 618.7 109.7 640 112.3C661.3 115 682.7 113 704 112C725.3 111 746.7 111 768 107C789.3 103 810.7 95 832 95.3C853.3 95.7 874.7 104.3 896 108.7C917.3 113 938.7 113 949.3 113L960 113L960 201L949.3 201C938.7 201 917.3 201 896 201C874.7 201 853.3 201 832 201C810.7 201 789.3 201 768 201C746.7 201 725.3 201 704 201C682.7 201 661.3 201 640 201C618.7 201 597.3 201 576 201C554.7 201 533.3 201 512 201C490.7 201 469.3 201 448 201C426.7 201 405.3 201 384 201C362.7 201 341.3 201 320 201C298.7 201 277.3 201 256 201C234.7 201 213.3 201 192 201C170.7 201 149.3 201 128 201C106.7 201 85.3 201 64 201C42.7 201 21.3 201 10.7 201L0 201Z" fill="#152316"></path><path d="M0 115L10.7 115C21.3 115 42.7 115 64 116C85.3 117 106.7 119 128 121.5C149.3 124 170.7 127 192 124.7C213.3 122.3 234.7 114.7 256 114.8C277.3 115 298.7 123 320 127.7C341.3 132.3 362.7 133.7 384 132.2C405.3 130.7 426.7 126.3 448 126.3C469.3 126.3 490.7 130.7 512 133C533.3 135.3 554.7 135.7 576 134.5C597.3 133.3 618.7 130.7 640 128.5C661.3 126.3 682.7 124.7 704 123.2C725.3 121.7 746.7 120.3 768 117.8C789.3 115.3 810.7 111.7 832 112.3C853.3 113 874.7 118 896 118.8C917.3 119.7 938.7 116.3 949.3 114.7L960 113L960 201L949.3 201C938.7 201 917.3 201 896 201C874.7 201 853.3 201 832 201C810.7 201 789.3 201 768 201C746.7 201 725.3 201 704 201C682.7 201 661.3 201 640 201C618.7 201 597.3 201 576 201C554.7 201 533.3 201 512 201C490.7 201 469.3 201 448 201C426.7 201 405.3 201 384 201C362.7 201 341.3 201 320 201C298.7 201 277.3 201 256 201C234.7 201 213.3 201 192 201C170.7 201 149.3 201 128 201C106.7 201 85.3 201 64 201C42.7 201 21.3 201 10.7 201L0 201Z" fill="#1a3b1e"></path><path d="M0 138L10.7 137.8C21.3 137.7 42.7 137.3 64 136.2C85.3 135 106.7 133 128 131.5C149.3 130 170.7 129 192 131.8C213.3 134.7 234.7 141.3 256 144.8C277.3 148.3 298.7 148.7 320 148.3C341.3 148 362.7 147 384 144.3C405.3 141.7 426.7 137.3 448 134.8C469.3 132.3 490.7 131.7 512 132C533.3 132.3 554.7 133.7 576 133.5C597.3 133.3 618.7 131.7 640 130.7C661.3 129.7 682.7 129.3 704 131.3C725.3 133.3 746.7 137.7 768 139.2C789.3 140.7 810.7 139.3 832 138.7C853.3 138 874.7 138 896 140.3C917.3 142.7 938.7 147.3 949.3 149.7L960 152L960 201L949.3 201C938.7 201 917.3 201 896 201C874.7 201 853.3 201 832 201C810.7 201 789.3 201 768 201C746.7 201 725.3 201 704 201C682.7 201 661.3 201 640 201C618.7 201 597.3 201 576 201C554.7 201 533.3 201 512 201C490.7 201 469.3 201 448 201C426.7 201 405.3 201 384 201C362.7 201 341.3 201 320 201C298.7 201 277.3 201 256 201C234.7 201 213.3 201 192 201C170.7 201 149.3 201 128 201C106.7 201 85.3 201 64 201C42.7 201 21.3 201 10.7 201L0 201Z" fill="#1c5426"></path><path d="M0 149L10.7 149.2C21.3 149.3 42.7 149.7 64 149.5C85.3 149.3 106.7 148.7 128 151.5C149.3 154.3 170.7 160.7 192 162.3C213.3 164 234.7 161 256 161C277.3 161 298.7 164 320 163.7C341.3 163.3 362.7 159.7 384 157.5C405.3 155.3 426.7 154.7 448 154.8C469.3 155 490.7 156 512 155.2C533.3 154.3 554.7 151.7 576 153C597.3 154.3 618.7 159.7 640 160.7C661.3 161.7 682.7 158.3 704 158.2C725.3 158 746.7 161 768 159.7C789.3 158.3 810.7 152.7 832 150.8C853.3 149 874.7 151 896 153.2C917.3 155.3 938.7 157.7 949.3 158.8L960 160L960 201L949.3 201C938.7 201 917.3 201 896 201C874.7 201 853.3 201 832 201C810.7 201 789.3 201 768 201C746.7 201 725.3 201 704 201C682.7 201 661.3 201 640 201C618.7 201 597.3 201 576 201C554.7 201 533.3 201 512 201C490.7 201 469.3 201 448 201C426.7 201 405.3 201 384 201C362.7 201 341.3 201 320 201C298.7 201 277.3 201 256 201C234.7 201 213.3 201 192 201C170.7 201 149.3 201 128 201C106.7 201 85.3 201 64 201C42.7 201 21.3 201 10.7 201L0 201Z" fill="#1a6e2e"></path><path d="M0 167L10.7 168.3C21.3 169.7 42.7 172.3 64 172.5C85.3 172.7 106.7 170.3 128 169.7C149.3 169 170.7 170 192 170C213.3 170 234.7 169 256 168.7C277.3 168.3 298.7 168.7 320 170.3C341.3 172 362.7 175 384 174.7C405.3 174.3 426.7 170.7 448 170C469.3 169.3 490.7 171.7 512 174.5C533.3 177.3 554.7 180.7 576 182.2C597.3 183.7 618.7 183.3 640 181.7C661.3 180 682.7 177 704 175.8C725.3 174.7 746.7 175.3 768 175.2C789.3 175 810.7 174 832 174.7C853.3 175.3 874.7 177.7 896 177.2C917.3 176.7 938.7 173.3 949.3 171.7L960 170L960 201L949.3 201C938.7 201 917.3 201 896 201C874.7 201 853.3 201 832 201C810.7 201 789.3 201 768 201C746.7 201 725.3 201 704 201C682.7 201 661.3 201 640 201C618.7 201 597.3 201 576 201C554.7 201 533.3 201 512 201C490.7 201 469.3 201 448 201C426.7 201 405.3 201 384 201C362.7 201 341.3 201 320 201C298.7 201 277.3 201 256 201C234.7 201 213.3 201 192 201C170.7 201 149.3 201 128 201C106.7 201 85.3 201 64 201C42.7 201 21.3 201 10.7 201L0 201Z" fill="#138a36"></path></svg>